<svg width="500" height="300" viewBox="0 0 500 300" fill="none" xmlns="http://www.w3.org/2000/svg">
<path d="M85.9767 167H81.4167L67.6967 146.24V167H63.1367V139.16H67.6967L81.4167 159.88V139.16H85.9767V167ZM101.525 167.36C99.4448 167.36 97.5648 166.893 95.8848 165.96C94.2048 165 92.8848 163.667 91.9248 161.96C90.9648 160.227 90.4848 158.227 90.4848 155.96C90.4848 153.72 90.9782 151.733 91.9648 150C92.9515 148.267 94.2982 146.933 96.0048 146C97.7115 145.067 99.6182 144.6 101.725 144.6C103.832 144.6 105.738 145.067 107.445 146C109.152 146.933 110.498 148.267 111.485 150C112.472 151.733 112.965 153.72 112.965 155.96C112.965 158.2 112.458 160.187 111.445 161.92C110.432 163.653 109.045 165 107.285 165.96C105.552 166.893 103.632 167.36 101.525 167.36ZM101.525 163.4C102.698 163.4 103.792 163.12 104.805 162.56C105.845 162 106.685 161.16 107.325 160.04C107.965 158.92 108.285 157.56 108.285 155.96C108.285 154.36 107.978 153.013 107.365 151.92C106.752 150.8 105.938 149.96 104.925 149.4C103.912 148.84 102.818 148.56 101.645 148.56C100.472 148.56 99.3782 148.84 98.3648 149.4C97.3782 149.96 96.5915 150.8 96.0048 151.92C95.4182 153.013 95.1248 154.36 95.1248 155.96C95.1248 158.333 95.7248 160.173 96.9248 161.48C98.1515 162.76 99.6848 163.4 101.525 163.4ZM132.423 139.2V167H127.863V139.2H132.423ZM165.09 144.6C166.823 144.6 168.37 144.96 169.73 145.68C171.117 146.4 172.197 147.467 172.97 148.88C173.77 150.293 174.17 152 174.17 154V167H169.65V154.68C169.65 152.707 169.157 151.2 168.17 150.16C167.183 149.093 165.837 148.56 164.13 148.56C162.423 148.56 161.063 149.093 160.05 150.16C159.063 151.2 158.57 152.707 158.57 154.68V167H154.05V154.68C154.05 152.707 153.557 151.2 152.57 150.16C151.583 149.093 150.237 148.56 148.53 148.56C146.823 148.56 145.463 149.093 144.45 150.16C143.463 151.2 142.97 152.707 142.97 154.68V167H138.41V144.96H142.97V147.48C143.717 146.573 144.663 145.867 145.81 145.36C146.957 144.853 148.183 144.6 149.49 144.6C151.25 144.6 152.823 144.973 154.21 145.72C155.597 146.467 156.663 147.547 157.41 148.96C158.077 147.627 159.117 146.573 160.53 145.8C161.943 145 163.463 144.6 165.09 144.6ZM178.453 155.88C178.453 153.667 178.906 151.707 179.813 150C180.746 148.293 181.999 146.973 183.573 146.04C185.173 145.08 186.933 144.6 188.853 144.6C190.586 144.6 192.093 144.947 193.373 145.64C194.679 146.307 195.719 147.147 196.493 148.16V144.96H201.093V167H196.493V163.72C195.719 164.76 194.666 165.627 193.333 166.32C191.999 167.013 190.479 167.36 188.773 167.36C186.879 167.36 185.146 166.88 183.573 165.92C181.999 164.933 180.746 163.573 179.813 161.84C178.906 160.08 178.453 158.093 178.453 155.88ZM196.493 155.96C196.493 154.44 196.173 153.12 195.533 152C194.919 150.88 194.106 150.027 193.093 149.44C192.079 148.853 190.986 148.56 189.813 148.56C188.639 148.56 187.546 148.853 186.533 149.44C185.519 150 184.693 150.84 184.053 151.96C183.439 153.053 183.133 154.36 183.133 155.88C183.133 157.4 183.439 158.733 184.053 159.88C184.693 161.027 185.519 161.907 186.533 162.52C187.573 163.107 188.666 163.4 189.813 163.4C190.986 163.4 192.079 163.107 193.093 162.52C194.106 161.933 194.919 161.08 195.533 159.96C196.173 158.813 196.493 157.48 196.493 155.96ZM215.962 144.6C217.669 144.6 219.175 144.947 220.482 145.64C221.815 146.307 222.855 147.147 223.602 148.16V144.96H228.202V167.36C228.202 169.387 227.775 171.187 226.922 172.76C226.069 174.36 224.829 175.613 223.202 176.52C221.602 177.427 219.682 177.88 217.442 177.88C214.455 177.88 211.975 177.173 210.002 175.76C208.029 174.373 206.909 172.48 206.642 170.08H211.162C211.509 171.227 212.242 172.147 213.362 172.84C214.509 173.56 215.869 173.92 217.442 173.92C219.282 173.92 220.762 173.36 221.882 172.24C223.029 171.12 223.602 169.493 223.602 167.36V163.68C222.829 164.72 221.775 165.6 220.442 166.32C219.135 167.013 217.642 167.36 215.962 167.36C214.042 167.36 212.282 166.88 210.682 165.92C209.109 164.933 207.855 163.573 206.922 161.84C206.015 160.08 205.562 158.093 205.562 155.88C205.562 153.667 206.015 151.707 206.922 150C207.855 148.293 209.109 146.973 210.682 146.04C212.282 145.08 214.042 144.6 215.962 144.6ZM223.602 155.96C223.602 154.44 223.282 153.12 222.642 152C222.029 150.88 221.215 150.027 220.202 149.44C219.189 148.853 218.095 148.56 216.922 148.56C215.749 148.56 214.655 148.853 213.642 149.44C212.629 150 211.802 150.84 211.162 151.96C210.549 153.053 210.242 154.36 210.242 155.88C210.242 157.4 210.549 158.733 211.162 159.88C211.802 161.027 212.629 161.907 213.642 162.52C214.682 163.107 215.775 163.4 216.922 163.4C218.095 163.4 219.189 163.107 220.202 162.52C221.215 161.933 222.029 161.08 222.642 159.96C223.282 158.813 223.602 157.48 223.602 155.96ZM254.391 155.44C254.391 156.267 254.338 157.013 254.231 157.68H237.391C237.525 159.44 238.178 160.853 239.351 161.92C240.525 162.987 241.965 163.52 243.671 163.52C246.125 163.52 247.858 162.493 248.871 160.44H253.791C253.125 162.467 251.911 164.133 250.151 165.44C248.418 166.72 246.258 167.36 243.671 167.36C241.565 167.36 239.671 166.893 237.991 165.96C236.338 165 235.031 163.667 234.071 161.96C233.138 160.227 232.671 158.227 232.671 155.96C232.671 153.693 233.125 151.707 234.031 150C234.965 148.267 236.258 146.933 237.911 146C239.591 145.067 241.511 144.6 243.671 144.6C245.751 144.6 247.605 145.053 249.231 145.96C250.858 146.867 252.125 148.147 253.031 149.8C253.938 151.427 254.391 153.307 254.391 155.44ZM249.631 154C249.605 152.32 249.005 150.973 247.831 149.96C246.658 148.947 245.205 148.44 243.471 148.44C241.898 148.44 240.551 148.947 239.431 149.96C238.311 150.947 237.645 152.293 237.431 154H249.631ZM286.03 161.32H274.39L272.39 167H267.63L277.59 139.16H282.87L292.83 167H288.03L286.03 161.32ZM284.75 157.6L280.23 144.68L275.67 157.6H284.75ZM305.68 162.92L311.92 144.96H316.76L308.36 167H302.92L294.56 144.96H299.44L305.68 162.92ZM318.687 155.88C318.687 153.667 319.14 151.707 320.047 150C320.98 148.293 322.234 146.973 323.807 146.04C325.407 145.08 327.167 144.6 329.087 144.6C330.82 144.6 332.327 144.947 333.607 145.64C334.914 146.307 335.954 147.147 336.727 148.16V144.96H341.327V167H336.727V163.72C335.954 164.76 334.9 165.627 333.567 166.32C332.234 167.013 330.714 167.36 329.007 167.36C327.114 167.36 325.38 166.88 323.807 165.92C322.234 164.933 320.98 163.573 320.047 161.84C319.14 160.08 318.687 158.093 318.687 155.88ZM336.727 155.96C336.727 154.44 336.407 153.12 335.767 152C335.154 150.88 334.34 150.027 333.327 149.44C332.314 148.853 331.22 148.56 330.047 148.56C328.874 148.56 327.78 148.853 326.767 149.44C325.754 150 324.927 150.84 324.287 151.96C323.674 153.053 323.367 154.36 323.367 155.88C323.367 157.4 323.674 158.733 324.287 159.88C324.927 161.027 325.754 161.907 326.767 162.52C327.807 163.107 328.9 163.4 330.047 163.4C331.22 163.4 332.314 163.107 333.327 162.52C334.34 161.933 335.154 161.08 335.767 159.96C336.407 158.813 336.727 157.48 336.727 155.96ZM349.636 142.04C348.81 142.04 348.116 141.76 347.556 141.2C346.996 140.64 346.716 139.947 346.716 139.12C346.716 138.293 346.996 137.6 347.556 137.04C348.116 136.48 348.81 136.2 349.636 136.2C350.436 136.2 351.116 136.48 351.676 137.04C352.236 137.6 352.516 138.293 352.516 139.12C352.516 139.947 352.236 140.64 351.676 141.2C351.116 141.76 350.436 142.04 349.636 142.04ZM351.876 144.96V167H347.316V144.96H351.876ZM362.423 137.4V167H357.863V137.4H362.423ZM366.89 155.88C366.89 153.667 367.343 151.707 368.25 150C369.183 148.293 370.437 146.973 372.01 146.04C373.61 145.08 375.37 144.6 377.29 144.6C379.023 144.6 380.53 144.947 381.81 145.64C383.117 146.307 384.157 147.147 384.93 148.16V144.96H389.53V167H384.93V163.72C384.157 164.76 383.103 165.627 381.77 166.32C380.437 167.013 378.917 167.36 377.21 167.36C375.317 167.36 373.583 166.88 372.01 165.92C370.437 164.933 369.183 163.573 368.25 161.84C367.343 160.08 366.89 158.093 366.89 155.88ZM384.93 155.96C384.93 154.44 384.61 153.12 383.97 152C383.357 150.88 382.543 150.027 381.53 149.44C380.517 148.853 379.423 148.56 378.25 148.56C377.077 148.56 375.983 148.853 374.97 149.44C373.957 150 373.13 150.84 372.49 151.96C371.877 153.053 371.57 154.36 371.57 155.88C371.57 157.4 371.877 158.733 372.49 159.88C373.13 161.027 373.957 161.907 374.97 162.52C376.01 163.107 377.103 163.4 378.25 163.4C379.423 163.4 380.517 163.107 381.53 162.52C382.543 161.933 383.357 161.08 383.97 159.96C384.61 158.813 384.93 157.48 384.93 155.96ZM400.08 148.24C400.853 147.173 401.906 146.307 403.24 145.64C404.6 144.947 406.106 144.6 407.76 144.6C409.706 144.6 411.466 145.067 413.04 146C414.613 146.933 415.853 148.267 416.76 150C417.666 151.707 418.12 153.667 418.12 155.88C418.12 158.093 417.666 160.08 416.76 161.84C415.853 163.573 414.6 164.933 413 165.92C411.426 166.88 409.68 167.36 407.76 167.36C406.053 167.36 404.533 167.027 403.2 166.36C401.893 165.693 400.853 164.84 400.08 163.8V167H395.52V137.4H400.08V148.24ZM413.48 155.88C413.48 154.36 413.16 153.053 412.52 151.96C411.906 150.84 411.08 150 410.04 149.44C409.026 148.853 407.933 148.56 406.76 148.56C405.613 148.56 404.52 148.853 403.48 149.44C402.466 150.027 401.64 150.88 401 152C400.386 153.12 400.08 154.44 400.08 155.96C400.08 157.48 400.386 158.813 401 159.96C401.64 161.08 402.466 161.933 403.48 162.52C404.52 163.107 405.613 163.4 406.76 163.4C407.933 163.4 409.026 163.107 410.04 162.52C411.08 161.907 411.906 161.027 412.52 159.88C413.16 158.733 413.48 157.4 413.48 155.88ZM427.189 137.4V167H422.629V137.4H427.189ZM453.376 155.44C453.376 156.267 453.322 157.013 453.216 157.68H436.376C436.509 159.44 437.162 160.853 438.336 161.92C439.509 162.987 440.949 163.52 442.656 163.52C445.109 163.52 446.842 162.493 447.856 160.44H452.776C452.109 162.467 450.896 164.133 449.136 165.44C447.402 166.72 445.242 167.36 442.656 167.36C440.549 167.36 438.656 166.893 436.976 165.96C435.322 165 434.016 163.667 433.056 161.96C432.122 160.227 431.656 158.227 431.656 155.96C431.656 153.693 432.109 151.707 433.016 150C433.949 148.267 435.242 146.933 436.896 146C438.576 145.067 440.496 144.6 442.656 144.6C444.736 144.6 446.589 145.053 448.216 145.96C449.842 146.867 451.109 148.147 452.016 149.8C452.922 151.427 453.376 153.307 453.376 155.44ZM448.616 154C448.589 152.32 447.989 150.973 446.816 149.96C445.642 148.947 444.189 148.44 442.456 148.44C440.882 148.44 439.536 148.947 438.416 149.96C437.296 150.947 436.629 152.293 436.416 154H448.616Z" fill="#FF2156"/>
</svg>
